<svg width="108" height="101" xmlns="http://www.w3.org/2000/svg" xmlns:xlink="http://www.w3.org/1999/xlink" overflow="hidden"><defs><clipPath id="clip0"><rect x="4177" y="41" width="108" height="101"/></clipPath></defs><g clip-path="url(#clip0)" transform="translate(-4177 -41)"><path d="M4179.5 47.8335C4179.5 45.4403 4181.44 43.5002 4183.83 43.5002L4201.17 43.5002C4203.56 43.5002 4205.5 45.4403 4205.5 47.8335L4205.5 135.167C4205.5 137.56 4203.56 139.5 4201.17 139.5L4183.83 139.5C4181.44 139.5 4179.5 137.56 4179.5 135.167Z" stroke="#AE5A21" stroke-width="4.58333" stroke-miterlimit="8" fill="#ED7D31" fill-rule="evenodd"/><path d="M4217.5 48.0003C4217.5 45.5149 4219.51 43.5002 4222 43.5002L4240 43.5002C4242.49 43.5002 4244.5 45.5149 4244.5 48.0003L4244.5 135C4244.5 137.485 4242.49 139.5 4240 139.5L4222 139.5C4219.51 139.5 4217.5 137.485 4217.5 135Z" stroke="#AE5A21" stroke-width="4.58333" stroke-miterlimit="8" fill="#ED7D31" fill-rule="evenodd"/><path d="M4256.5 47.8335C4256.5 45.4403 4258.44 43.5002 4260.83 43.5002L4278.17 43.5002C4280.56 43.5002 4282.5 45.4403 4282.5 47.8335L4282.5 135.167C4282.5 137.56 4280.56 139.5 4278.17 139.5L4260.83 139.5C4258.44 139.5 4256.5 137.56 4256.5 135.167Z" stroke="#AE5A21" stroke-width="4.58333" stroke-miterlimit="8" fill="#ED7D31" fill-rule="evenodd"/></g></svg>